<svg width="23" height="23" viewBox="0 0 23 23" fill="none" xmlns="http://www.w3.org/2000/svg">
<path fill-rule="evenodd" clip-rule="evenodd" d="M17.2895 11.9425C16.1441 13.0509 15.6208 14.6455 15.8922 16.2106L16.3948 19.1196L13.7613 17.7461C13.0667 17.3836 12.2847 17.1919 11.5004 17.1919C10.7149 17.1919 9.93291 17.3836 9.23831 17.7461L6.6048 19.1196L7.1085 16.2106C7.37875 14.6455 6.85551 13.0509 5.71011 11.9425L3.58031 9.88232L6.52431 9.45736C8.10786 9.22955 9.47521 8.24385 10.1836 6.82004L11.5004 4.17284L12.8171 6.82004C13.5244 8.24385 14.8929 9.22955 16.4753 9.45736L19.4204 9.88232L17.2895 11.9425ZM22.369 10.879C23.6041 9.68408 22.9233 7.60204 21.2156 7.35561L16.8755 6.73023C16.197 6.63275 15.6105 6.21 15.308 5.59995L13.3668 1.6987C12.985 0.930935 12.2421 0.547607 11.5004 0.547607C10.7575 0.547607 10.0146 0.930935 9.63276 1.6987L7.69271 5.59995C7.38911 6.21 6.8026 6.63275 6.12525 6.73023L1.78515 7.35561C0.0774032 7.60204 -0.604546 9.68408 0.630555 10.879L3.77121 13.9161C4.26226 14.3903 4.48651 15.0738 4.37036 15.744L3.6286 20.033C3.39745 21.3681 4.46695 22.4524 5.6802 22.4524C5.9999 22.4524 6.33111 22.3768 6.64966 22.2103L10.5309 20.1852C10.8345 20.0275 11.1669 19.9476 11.5004 19.9476C11.8327 19.9476 12.1651 20.0275 12.4687 20.1852L16.3511 22.2103C16.6696 22.3768 16.9997 22.4524 17.3194 22.4524C18.5326 22.4524 19.6021 21.3681 19.371 20.033L18.6304 15.744C18.5142 15.0738 18.7373 14.3903 19.2284 13.9161L22.369 10.879Z" fill="#615A68"/>
</svg>
