<svg width="45" height="45" viewBox="0 0 45 45" fill="white" xmlns="http://www.w3.org/2000/svg">
<path d="M18.7484 5.26806C18.8652 3.98354 19.9422 3 21.2319 3H23.7681C25.0578 3 26.1348 3.98354 26.2516 5.26806C26.3475 6.32264 27.1065 7.18359 28.0981 7.5552C28.3529 7.65073 28.6049 7.75262 28.8535 7.86063C29.8345 8.28702 30.9885 8.20529 31.8103 7.52045C32.8258 6.67419 34.3191 6.74193 35.2538 7.67667L37.0439 9.46665C37.935 10.3579 37.9996 11.7816 37.1927 12.7498C36.5207 13.5563 36.4581 14.695 36.9099 15.6426C37.1055 16.053 37.2841 16.4731 37.4448 16.9019C37.8165 17.8935 38.6774 18.6525 39.732 18.7484C41.0164 18.8652 42 19.9422 42 21.2319V23.7681C42 25.0578 41.0164 26.1348 39.732 26.2516C38.6774 26.3475 37.8165 27.1065 37.4448 28.0981C37.3005 28.483 37.1418 28.8609 36.9694 29.231C36.5503 30.1304 36.6182 31.2042 37.2533 31.9665C38.0259 32.8935 37.9641 34.2567 37.1108 35.1101L35.1101 37.1108C34.2567 37.9641 32.8935 38.0259 31.9665 37.2533C31.2042 36.6182 30.1304 36.5503 29.231 36.9694C28.8609 37.1418 28.483 37.3005 28.0981 37.4448C27.1065 37.8165 26.3475 38.6774 26.2516 39.732C26.1348 41.0164 25.0578 42 23.7681 42H21.2319C19.9422 42 18.8652 41.0164 18.7484 39.732C18.6525 38.6774 17.8935 37.8165 16.9019 37.4448C16.4731 37.2841 16.053 37.1055 15.6427 36.9099C14.695 36.4581 13.5563 36.5207 12.7498 37.1927C11.7816 37.9996 10.3578 37.935 9.46663 37.0439L7.67667 35.2538C6.74191 34.3191 6.67419 32.8258 7.52045 31.8103C8.20531 30.9885 8.28702 29.8345 7.86063 28.8535C7.75262 28.6049 7.65075 28.3531 7.5552 28.0981C7.18361 27.1065 6.32264 26.3475 5.26806 26.2516C3.98354 26.1348 3 25.0578 3 23.7681V21.2319C3 19.9422 3.98354 18.8652 5.26806 18.7484C6.32266 18.6525 7.18361 17.8935 7.55522 16.9019C7.66752 16.6022 7.78858 16.3068 7.91808 16.016C8.37635 14.987 8.30018 13.769 7.57901 12.9036C6.69958 11.8483 6.76997 10.2965 7.74133 9.32512L9.3251 7.74135C10.2965 6.76997 11.8483 6.69958 12.9036 7.57903C13.769 8.3002 14.9869 8.37635 16.016 7.91808C16.3068 7.78858 16.6022 7.66752 16.9019 7.55522C17.8935 7.18361 18.6525 6.32266 18.7484 5.26806Z" stroke="#111111" stroke-width="5.33333" stroke-linecap="round" stroke-linejoin="round"/>
<path d="M28.35 22.5C28.35 25.7309 25.731 28.35 22.5 28.35C19.2691 28.35 16.65 25.7309 16.65 22.5C16.65 19.269 19.2691 16.65 22.5 16.65C25.731 16.65 28.35 19.269 28.35 22.5Z" stroke="#111111" stroke-width="5.33333" stroke-linecap="round" stroke-linejoin="round"/>
</svg>
