<svg width="25" height="25" viewBox="0 0 25 25" fill="none" xmlns="http://www.w3.org/2000/svg">
<path d="M23.0064 12.4989L24.6305 10.8872C24.7469 10.7707 24.8393 10.6324 24.9024 10.4802C24.9654 10.328 24.9979 10.1649 24.9979 10.0002C24.9979 9.83543 24.9654 9.6723 24.9024 9.5201C24.8393 9.36789 24.7469 9.2296 24.6305 9.11311C24.514 8.99662 24.3757 8.90421 24.2235 8.84117C24.0713 8.77812 23.9082 8.74568 23.7435 8.74568C23.5788 8.74568 23.4156 8.77812 23.2634 8.84117C23.1113 8.90421 22.973 8.99662 22.8565 9.11311L20.7327 11.2496H17.3347C17.2166 10.8114 17.0401 10.3912 16.81 10.0002L19.1961 7.60136H22.2194C22.5507 7.60136 22.8685 7.46973 23.1027 7.23542C23.337 7.00112 23.4686 6.68333 23.4686 6.35197C23.4686 6.02062 23.337 5.70283 23.1027 5.46853C22.8685 5.23422 22.5507 5.10259 22.2194 5.10259H19.9957V2.77874C19.9957 2.44738 19.864 2.1296 19.6298 1.89529C19.3955 1.66099 19.0777 1.52936 18.7464 1.52936C18.4151 1.52936 18.0973 1.66099 17.863 1.89529C17.6287 2.1296 17.4971 2.44738 17.4971 2.77874V5.80225L14.9986 8.18857C14.6075 7.95843 14.1873 7.78193 13.7493 7.66383V4.26551L15.8855 2.14156C16.002 2.02507 16.0944 1.88677 16.1575 1.73457C16.2205 1.58237 16.2529 1.41924 16.2529 1.25449C16.2529 1.08975 16.2205 0.926622 16.1575 0.77442C16.0944 0.622218 16.002 0.483923 15.8855 0.367433C15.7691 0.250942 15.6308 0.158537 15.4786 0.0954926C15.3264 0.0324484 15.1633 0 14.9986 0C14.6659 0 14.3468 0.132169 14.1116 0.367433L12.5 1.99163L10.8884 0.367433C10.6532 0.132169 10.3341 -2.4789e-09 10.0014 0C9.66877 2.4789e-09 9.34971 0.132169 9.11446 0.367433C8.87922 0.602696 8.74706 0.921782 8.74706 1.25449C8.74706 1.58721 8.87922 1.90629 9.11446 2.14156L11.2507 4.26551V7.66383C10.8127 7.78193 10.3925 7.95843 10.0014 8.18857L7.56536 5.80225V2.77874C7.56536 2.44738 7.43374 2.1296 7.19946 1.89529C6.96517 1.66099 6.64741 1.52936 6.31609 1.52936C5.98476 1.52936 5.667 1.66099 5.43271 1.89529C5.19843 2.1296 5.06681 2.44738 5.06681 2.77874V5.06511H2.78064C2.44931 5.06511 2.13155 5.19674 1.89726 5.43105C1.66298 5.66535 1.53136 5.98314 1.53136 6.31449C1.53136 6.64585 1.66298 6.96363 1.89726 7.19794C2.13155 7.43224 2.44931 7.56388 2.78064 7.56388H5.80388L8.19 10.0002C7.95988 10.3912 7.7834 10.8114 7.6653 11.2496H4.26727L2.14351 9.11311C1.90826 8.87785 1.5892 8.74568 1.25652 8.74568C0.923835 8.74568 0.604777 8.87785 0.369534 9.11311C0.13429 9.34837 0.00213216 9.66746 0.00213216 10.0002C0.00213216 10.3329 0.13429 10.652 0.369534 10.8872L1.99359 12.4989L0.369534 14.1106C0.252441 14.2268 0.159502 14.365 0.0960779 14.5172C0.0326539 14.6695 0 14.8328 0 14.9977C0 15.1626 0.0326539 15.3259 0.0960779 15.4782C0.159502 15.6304 0.252441 15.7686 0.369534 15.8848C0.48567 16.0019 0.623841 16.0948 0.776077 16.1582C0.928313 16.2217 1.0916 16.2543 1.25652 16.2543C1.42144 16.2543 1.58473 16.2217 1.73696 16.1582C1.8892 16.0948 2.02737 16.0019 2.14351 15.8848L4.26727 13.7483H7.6653C7.7834 14.1864 7.95988 14.6066 8.19 14.9977L5.80388 17.4965H2.78064C2.44931 17.4965 2.13155 17.6281 1.89726 17.8624C1.66298 18.0967 1.53136 18.4145 1.53136 18.7458C1.53136 19.0772 1.66298 19.395 1.89726 19.6293C2.13155 19.8636 2.44931 19.9952 2.78064 19.9952H5.06681V22.2816C5.06681 22.613 5.19843 22.9307 5.43271 23.165C5.667 23.3993 5.98476 23.531 6.31609 23.531C6.64741 23.531 6.96517 23.3993 7.19946 23.165C7.43374 22.9307 7.56536 22.613 7.56536 22.2816V19.1956L10.0014 16.8093C10.3925 17.0394 10.8127 17.2159 11.2507 17.334V20.7324L9.11446 22.8563C8.87922 23.0916 8.74706 23.4107 8.74706 23.7434C8.74706 24.0761 8.87922 24.3952 9.11446 24.6304C9.34971 24.8657 9.66877 24.9979 10.0014 24.9979C10.3341 24.9979 10.6532 24.8657 10.8884 24.6304L12.5 23.0062L14.1116 24.6304C14.2277 24.7475 14.3659 24.8405 14.5181 24.9039C14.6703 24.9673 14.8336 25 14.9986 25C15.1635 25 15.3268 24.9673 15.479 24.9039C15.6312 24.8405 15.7694 24.7475 15.8855 24.6304C16.0026 24.5143 16.0956 24.3761 16.159 24.2239C16.2224 24.0716 16.2551 23.9083 16.2551 23.7434C16.2551 23.5784 16.2224 23.4151 16.159 23.2629C16.0956 23.1106 16.0026 22.9725 15.8855 22.8563L13.7493 20.7324V17.334C14.1873 17.2159 14.6075 17.0394 14.9986 16.8093L17.4971 19.1956V22.2191C17.4971 22.5505 17.6287 22.8683 17.863 23.1026C18.0973 23.3369 18.4151 23.4685 18.7464 23.4685C19.0777 23.4685 19.3955 23.3369 19.6298 23.1026C19.864 22.8683 19.9957 22.5505 19.9957 22.2191V19.9952H22.2818C22.6132 19.9952 22.9309 19.8636 23.1652 19.6293C23.3995 19.395 23.5311 19.0772 23.5311 18.7458C23.5311 18.4145 23.3995 18.0967 23.1652 17.8624C22.9309 17.6281 22.6132 17.4965 22.2818 17.4965H19.1961L16.81 14.9977C17.0401 14.6066 17.2166 14.1864 17.3347 13.7483H20.7327L22.8565 15.8848C22.9726 16.0019 23.1108 16.0948 23.263 16.1582C23.4153 16.2217 23.5786 16.2543 23.7435 16.2543C23.9084 16.2543 24.0717 16.2217 24.2239 16.1582C24.3762 16.0948 24.5143 16.0019 24.6305 15.8848C24.7476 15.7686 24.8405 15.6304 24.9039 15.4782C24.9673 15.3259 25 15.1626 25 14.9977C25 14.8328 24.9673 14.6695 24.9039 14.5172C24.8405 14.365 24.7476 14.2268 24.6305 14.1106L23.0064 12.4989ZM14.2615 14.2356C13.7785 14.6515 13.1623 14.8803 12.525 14.8803C11.8876 14.8803 11.2714 14.6515 10.7885 14.2356C10.3382 13.7696 10.0864 13.147 10.0864 12.4989C10.0864 11.8509 10.3382 11.2282 10.7885 10.7623C11.2714 10.3463 11.8876 10.1175 12.525 10.1175C13.1623 10.1175 13.7785 10.3463 14.2615 10.7623C14.7118 11.2282 14.9635 11.8509 14.9635 12.4989C14.9635 13.147 14.7118 13.7696 14.2615 14.2356Z" fill="#3E3D3D"/>
</svg>
