<svg width="16" height="34" viewBox="0 0 16 34" fill="none" xmlns="http://www.w3.org/2000/svg">
<path d="M15.7977 16.758C15.9291 15.5939 16 14.3803 16 13.139C16 12.6434 15.9931 12.157 15.9783 11.6799C15.96 11.0656 15.4468 10.5873 14.8478 10.5873C14.8147 10.5873 14.7804 10.5884 14.7472 10.5919C14.5049 10.6138 14.2786 10.623 14.0706 10.623C12.9847 10.623 12.3846 10.3729 12.3846 10.3729C12.3846 10.3729 13.6842 10.2254 15.177 9.13736C15.5314 8.87919 15.7268 8.43776 15.6605 8.0021C14.9256 3.15797 12.8293 0 7.99886 0C1.75339 0 0.0697242 5.26597 0 12.6492C0.0982998 13.0399 0.192028 13.4121 0.29147 13.8028C0.837834 14.8079 1.7031 15.9339 3.04615 16.7119C3.04615 16.7119 3.01757 16.7142 2.96385 16.7142C2.74325 16.7142 2.0963 16.6761 1.2196 16.2889C1.14416 16.2555 1.06644 16.2405 0.992142 16.2405C0.643521 16.2405 0.346335 16.5793 0.432062 16.962C1.74996 22.8676 5.87398 27.4317 9.30876 27.4317C9.35448 27.4317 9.39563 27.4178 9.44021 27.4155C10.6015 30.0306 12.2406 32.3161 14.5346 33.8997C14.6329 33.9677 14.745 34 14.857 34C15.0387 34 15.217 33.9124 15.3279 33.7499C15.5062 33.4871 15.4411 33.1287 15.1793 32.9489C13.1539 31.5497 11.6828 29.5166 10.6141 27.17C12.4429 26.4923 13.8763 24.4293 14.7998 21.5744C15.0261 20.876 14.5369 20.1603 13.8134 20.0727C12.7458 19.9424 12.0429 19.5932 12.0429 19.5932C12.0429 19.5932 13.3893 19.4445 14.9164 18.3012C15.4068 17.9347 15.728 17.37 15.7977 16.758ZM14.6615 16.6266C14.6284 16.9205 14.4684 17.2005 14.2352 17.3757C13.0041 18.2966 11.9183 18.4476 11.9183 18.4476C11.4131 18.5041 11.005 18.889 10.917 19.3938C10.829 19.8986 11.0816 20.4012 11.5376 20.6271C11.6279 20.672 12.4509 21.0673 13.7128 21.216C12.8453 23.9003 11.5811 25.6106 10.1649 26.1097C6.55637 16.8767 8.53608 3.71925 8.56351 3.54753C8.61266 3.23288 8.39891 2.93783 8.08801 2.88827C7.78054 2.83641 7.48335 3.05308 7.4342 3.36773C7.32333 4.07769 5.39734 16.8456 8.96128 26.2492C6.49007 25.9529 3.19703 22.5772 1.8014 17.7077C2.32262 17.8402 2.72382 17.8667 2.96385 17.8667C3.07701 17.8667 3.13645 17.8609 3.13645 17.8609C3.63138 17.8114 4.04858 17.4449 4.15259 16.9551C4.25661 16.4652 4.04629 15.9627 3.61537 15.7126C2.70096 15.1824 1.94313 14.3953 1.36134 13.3718L1.24361 12.9039L1.14416 12.512C1.27218 2.50678 4.67838 1.15254 7.99886 1.15254C11.7788 1.15254 13.794 3.31932 14.5084 8.20264C13.3059 9.07973 12.2578 9.22725 12.2578 9.22725C11.74 9.28603 11.3262 9.69058 11.253 10.2115C11.1799 10.7325 11.4668 11.2373 11.9491 11.4378C12.084 11.4943 12.8213 11.7744 14.0706 11.7744C14.3095 11.7744 14.5689 11.764 14.8353 11.7144C14.8501 12.1801 14.857 12.6549 14.857 13.139C14.857 14.31 14.7918 15.4833 14.6615 16.6266Z" fill="#3E3D3D"/>
</svg>
