<svg width="31" height="31" viewBox="0 0 31 31" fill="none" xmlns="http://www.w3.org/2000/svg">
<path d="M0 15.498C-0.000387192 18.5637 0.908342 21.5607 2.61127 24.1099C4.3142 26.6591 6.73483 28.6461 9.56705 29.8196C12.3993 30.993 15.5159 31.3003 18.5227 30.7024C21.5295 30.1046 24.2915 28.6285 26.4595 26.4608C28.6274 24.2932 30.1038 21.5314 30.702 18.5246C31.3003 15.5179 30.9934 12.4012 29.8203 9.56886C28.6472 6.73649 26.6605 4.3156 24.1115 2.61236C21.5625 0.909109 18.5657 2.44555e-08 15.5 0C11.3895 -3.27903e-08 7.44729 1.63276 4.54054 4.53915C1.63378 7.44554 0.000520706 11.3875 0 15.498ZM5.61305 12.021C5.96191 10.9518 6.68315 10.0434 7.64544 9.46129C8.60775 8.87916 9.7471 8.66199 10.8561 8.84931C11.0227 7.73769 11.5829 6.72283 12.4346 5.9893C13.2863 5.25578 14.373 4.85232 15.4971 4.85232C16.6211 4.85232 17.7078 5.25578 18.5595 5.9893C19.4112 6.72283 19.9714 7.73769 20.1381 8.84931C21.2498 8.6561 22.394 8.87013 23.3607 9.45216C24.3275 10.0342 25.052 10.9452 25.4015 12.0182C25.751 13.0911 25.702 14.2541 25.2635 15.2938C24.825 16.3336 24.0264 17.1804 23.0141 17.679C23.539 18.6771 23.6867 19.8309 23.4303 20.929C23.1739 22.0272 22.5305 22.9962 21.6179 23.6587C20.7053 24.3211 19.5847 24.6326 18.4611 24.5362C17.3376 24.4398 16.2863 23.9418 15.5 23.1335C14.7137 23.9428 13.6621 24.4416 12.5378 24.5384C11.4136 24.6352 10.2922 24.3235 9.37916 23.6605C8.46611 22.9975 7.82266 22.0276 7.56676 20.9286C7.31086 19.8296 7.45967 18.6752 7.98591 17.6771C6.97761 17.1758 6.18316 16.3287 5.74754 15.2903C5.31193 14.252 5.26419 13.0916 5.61305 12.021ZM15.498 11.5354C16.2322 11.5354 16.9499 11.7531 17.5603 12.161C18.1708 12.5689 18.6465 13.1486 18.9275 13.8269C19.2084 14.5052 19.282 15.2516 19.1387 15.9716C18.9955 16.6917 18.642 17.3531 18.1228 17.8722C17.6037 18.3914 16.9423 18.7449 16.2222 18.8881C15.5022 19.0314 14.7558 18.9578 14.0775 18.6769C13.3992 18.3959 12.8195 17.9202 12.4116 17.3097C12.0037 16.6993 11.786 15.9816 11.786 15.2474C11.786 14.263 12.1771 13.3188 12.8732 12.6227C13.5694 11.9265 14.5136 11.5354 15.498 11.5354Z" fill="black"/>
</svg>
