<svg width="23" height="23" viewBox="0 0 23 23" fill="none" xmlns="http://www.w3.org/2000/svg">
<path fill-rule="evenodd" clip-rule="evenodd" d="M17.2895 11.9425C16.1441 13.0509 15.6208 14.6455 15.8922 16.2106L16.3948 19.1196L13.7613 17.7461C13.0667 17.3836 12.2847 17.1919 11.5004 17.1919C10.7149 17.1919 9.93291 17.3836 9.23831 17.7461L6.6048 19.1196L7.1085 16.2106C7.37875 14.6455 6.85551 13.0509 5.71011 11.9425L3.58031 9.88232L6.52431 9.45736C8.10786 9.22955 9.4752 8.24385 10.1836 6.82004L11.5004 4.17284L12.8171 6.82004C13.5244 8.24385 14.8929 9.22955 16.4753 9.45736L19.4204 9.88232L17.2895 11.9425ZM22.369 10.879C23.6041 9.68408 22.9233 7.60204 21.2156 7.35561L16.8755 6.73023C16.197 6.63276 15.6105 6.21 15.308 5.59995L13.3668 1.6987C12.985 0.930935 12.2421 0.547607 11.5004 0.547607C10.7575 0.547607 10.0146 0.930935 9.63276 1.6987L7.69271 5.59995C7.38911 6.21 6.8026 6.63276 6.12525 6.73023L1.78515 7.35561C0.0774033 7.60204 -0.604546 9.68408 0.630555 10.879L3.77121 13.9161C4.26226 14.3903 4.48651 15.0737 4.37036 15.744L3.6286 20.033C3.39745 21.3681 4.46695 22.4524 5.6802 22.4524C5.9999 22.4524 6.33111 22.3768 6.64966 22.2103L10.5309 20.1852C10.8345 20.0275 11.1669 19.9476 11.5004 19.9476C11.8327 19.9476 12.1651 20.0275 12.4687 20.1852L16.3511 22.2103C16.6696 22.3768 16.9997 22.4524 17.3194 22.4524C18.5326 22.4524 19.6021 21.3681 19.371 20.033L18.6304 15.744C18.5142 15.0737 18.7373 14.3903 19.2284 13.9161L22.369 10.879Z" fill="#9118F0"/>
<path d="M18.8151 9.73842C18.1568 9.73842 17.6125 10.2206 16.9721 10.3684C16.2648 10.5316 15.5772 10.5982 14.8543 10.5829C14.2442 10.5699 13.6452 10.4019 13.0314 10.4019C12.7832 10.4019 12.7321 10.3146 12.5857 10.1037C12.0872 9.38522 11.55 8.6872 11.0678 7.95907C10.698 7.40081 10.0321 6.57531 10.5517 5.89155C10.7394 5.64456 10.7842 6.74739 10.7829 6.803C10.7768 7.0761 10.7276 7.3336 10.679 7.60052C10.6577 7.71799 10.785 7.38654 10.8365 7.27883C11.0336 6.8669 11.2463 6.43652 11.4699 6.03899C11.6196 5.77284 11.6458 5.8427 11.7849 6.11271C11.9062 6.34842 12.0966 6.89494 12.3746 7.01076C12.4583 7.04562 12.6 6.11972 12.6025 6.02558C12.6078 5.82707 12.6025 5.62774 12.6025 5.42912C12.6025 5.34012 12.6855 5.7594 12.7198 5.84799C12.9415 6.4209 12.9605 7.08737 13.0716 7.68765C13.1297 8.00134 13.1904 8.04955 12.8739 8.04955C12.7143 8.04955 13.0897 8.17253 13.1453 8.20034C13.7076 8.48148 14.2767 8.75069 14.8409 9.02802C15.0107 9.11149 15.5314 9.40315 15.739 9.19557C15.92 9.01448 15.9288 8.507 15.7658 8.31427C15.5358 8.04246 15.2253 8.00005 14.9682 7.76137C14.8649 7.66545 14.7466 7.60887 14.6264 7.54021C14.3876 7.4037 14.2215 7.16647 13.9764 7.02416C13.2352 6.5938 12.5711 6.05492 11.8586 5.57991C11.5002 5.34098 11.0096 5.05374 10.8667 4.6249C10.7872 4.38627 10.9367 4.98283 10.9404 5.02031C11.0228 5.85619 10.9073 6.63078 10.7293 7.44638C10.583 8.117 10.3815 8.78019 10.0357 9.37652C9.92284 9.57106 9.76624 9.92205 9.55984 10.04C9.38216 10.1415 9.34538 10.2518 9.34538 10.4488C9.34538 10.6961 9.18766 10.868 8.98348 10.6298C8.35131 9.89224 9.173 8.96348 9.46601 8.30422C9.52454 8.17252 9.70309 7.97509 9.4191 8.13667C9.21754 8.25135 9.03079 8.43409 8.87625 8.6058C8.67707 8.82711 9.28506 8.10937 9.28506 7.81163C9.28506 7.75455 9.32231 7.42479 9.27166 7.39947C9.13227 7.32977 8.59898 8.54523 8.52775 8.65942C8.24281 9.11617 8.13802 9.73842 7.49902 9.73842C6.51589 9.73842 3.5785 9.53196 4.5502 9.68145C4.89117 9.73391 5.38169 9.9969 5.61914 10.2344C5.94969 10.5649 6.33288 10.8212 6.67804 11.1391C7.27535 11.6893 8.13904 11.8208 8.13904 12.7476C8.13904 12.98 8.12855 13.3747 8.04857 13.5987C7.89603 14.0258 7.32354 13.8019 7.05334 13.6456C6.54661 13.3525 6.31204 13.1556 6.21226 12.6068C6.10853 12.0363 6.47797 13.0417 6.49709 13.21C6.54916 13.6682 6.54235 14.0759 6.67804 14.5168C6.74096 14.7213 6.68559 14.9676 6.78527 15.1669C6.86565 15.3277 7.15072 15.7849 7.07345 15.6227C6.69021 14.8179 6.70134 13.9846 6.47363 13.1497C6.40259 12.8892 6.15976 12.6576 6.09162 12.4192C5.80211 11.4058 8.95948 12.694 9.32192 12.7811C9.87453 12.9139 10.7149 13.1671 11.2755 12.9084C11.6113 12.7534 11.7496 12.3836 11.9524 12.1042C12.1513 11.8301 12.4591 11.5097 12.7566 11.3469C12.8188 11.3129 12.9648 11.1935 13.0247 11.186C13.1827 11.1663 12.8822 11.0189 12.8404 11.0084C12.5308 10.931 12.2146 10.8503 11.8954 10.8275C11.5316 10.8015 11.3533 11.2153 11.2152 11.4876C10.9053 12.0987 10.6825 12.7729 10.5785 13.4512C10.5097 13.9002 10.4833 14.2463 10.1865 14.6174C9.99145 14.8611 9.78047 15.0937 9.55984 15.3144C9.23817 15.636 8.86213 15.8981 8.54115 16.2191C8.32071 16.4396 8.18448 16.7586 7.94469 16.9898C7.60129 17.321 7.4268 17.7441 7.21083 18.1761C7.20847 18.1808 7.15751 18.2772 7.18738 18.29C7.30974 18.3424 7.71874 17.976 7.76374 17.9415C8.67686 17.241 9.60402 16.588 10.5383 15.9175C11.043 15.5554 11.5775 15.2078 12.1669 14.9994C12.4734 14.891 12.7399 14.751 12.9979 14.5504C13.6846 14.0163 13.3154 12.782 13.6882 12.0573C13.8267 11.7879 14.0337 12.517 14.1406 12.6001C14.2643 12.6963 14.5332 12.3374 14.6298 12.2751C14.9577 12.0635 15.447 11.9906 15.8328 11.9735C16.2317 11.9558 16.5965 12.0395 16.9721 12.1712C17.3055 12.2881 16.4439 12.8019 16.3086 12.9218C15.9036 13.2808 15.7293 13.7052 15.4675 14.1717C15.2703 14.5232 15.1675 14.9748 14.7337 15.0597C13.9783 15.2075 13.4202 15.4628 12.77 15.8907C12.5809 16.0152 12.4046 16.158 12.2138 16.2794C11.9325 16.4584 12.758 16.5119 12.8136 16.5174C13.5688 16.592 14.358 16.4242 15.0688 16.7352C15.5363 16.9397 15.7104 17.1257 15.739 17.6399C15.7449 17.7477 16.0766 17.7002 16.1612 17.7002" stroke="#9118F0" stroke-width="3" stroke-linecap="round"/>
</svg>
