<svg width="25" height="25" viewBox="0 0 25 25" fill="none" xmlns="http://www.w3.org/2000/svg">
<g clip-path="url(#clip0_1156_13)">
<path d="M12.5 19.5312C16.3833 19.5312 19.5312 16.3833 19.5312 12.5C19.5312 8.61675 16.3833 5.46875 12.5 5.46875C8.61675 5.46875 5.46875 8.61675 5.46875 12.5C5.46875 16.3833 8.61675 19.5312 12.5 19.5312Z" stroke="#3E3D3D" stroke-width="2" stroke-miterlimit="10" stroke-linecap="round" stroke-linejoin="round"/>
<path d="M15.625 0.78125C15.8594 3.4375 18.6719 5 21.0938 3.90625C20 6.32812 21.5625 9.0625 24.2188 9.375C22.0313 10.9375 22.0313 14.1406 24.2188 15.625C21.5625 15.8594 20 18.6719 21.0938 21.0938C18.6719 20 15.9375 21.5625 15.625 24.2188C14.0625 22.0313 10.8594 22.0313 9.375 24.2188C9.14062 21.5625 6.32812 20 3.90625 21.0938C5 18.6719 3.4375 15.9375 0.78125 15.625C2.96875 14.0625 2.96875 10.8594 0.78125 9.375C3.4375 9.14062 5 6.32812 3.90625 3.90625C6.32812 5 9.0625 3.4375 9.375 0.78125C10.8594 2.96875 14.1406 2.96875 15.625 0.78125Z" stroke="#3E3D3D" stroke-width="2" stroke-miterlimit="10" stroke-linecap="round" stroke-linejoin="round"/>
</g>
<defs>
<clipPath id="clip0_1156_13">
<rect width="25" height="25" fill="white"/>
</clipPath>
</defs>
</svg>
