<?xml version="1.0" encoding="utf-8"?>
<!-- Uploaded to: SVG Repo, www.svgrepo.com, Generator: SVG Repo Mixer Tools -->
<svg fill="#000000" width="35px" height="35px" viewBox="0 0 40 40 " version="1.1" xmlns="http://www.w3.org/2000/svg">
<title>video</title>
<path d="M0 26.016q0 2.496 1.76 4.224t4.256 1.76h20q2.464 0 4.224-1.76t1.76-4.224v-20q0-2.496-1.76-4.256t-4.224-1.76h-20q-2.496 0-4.256 1.76t-1.76 4.256v20zM4 26.016v-20q0-0.832 0.576-1.408t1.44-0.608h20q0.8 0 1.408 0.608t0.576 1.408v20q0 0.832-0.576 1.408t-1.408 0.576h-20q-0.832 0-1.44-0.576t-0.576-1.408zM6.016 24h1.984v2.016h2.016v-20h-4v1.984h1.984v2.016h-1.984v1.984h1.984v2.016h-1.984v1.984h1.984v2.016h-1.984v1.984h1.984v2.016h-1.984v1.984zM12 26.016h8v-4h-8v4zM12 20h8v-8h-8v8zM12 10.016h8v-4h-8v4zM22.016 26.016h1.984v-2.016h2.016v-1.984h-2.016v-2.016h2.016v-1.984h-2.016v-2.016h2.016v-1.984h-2.016v-2.016h2.016v-1.984h-2.016v-2.016h2.016v-1.984h-4v20z"></path>
</svg>