<svg width="328" height="146" viewBox="0 0 328 146" fill="none" xmlns="http://www.w3.org/2000/svg">
<path d="M110.762 136.311H3.64743C1.63383 136.311 0 134.71 0 132.735V3.57591C0 1.6018 1.63301 0 3.64743 0H135.389C137.403 0 139.037 1.60099 139.037 3.57591V59.7156C138.509 58.1134 132.321 39.7832 122.76 30.4739C112.756 20.7342 94.6181 12.7647 97.3154 19.1703C100.013 25.5759 100.013 42.2616 100.013 42.2616L72.8542 52.6203L68.7807 67.687L35.5428 76.4502C35.5428 76.4502 37.9114 93.4033 47.4651 96.3663C53.5931 98.2668 93.7606 102.698 93.7606 102.698L86.1352 136.311H110.762Z" fill="#EEB336"/>
<path d="M129.288 98.68C129.016 98.856 128.624 99.072 128.112 99.328C127.616 99.568 127.024 99.776 126.336 99.952C125.664 100.128 124.928 100.208 124.128 100.192C122.768 100.176 121.552 99.936 120.48 99.472C119.408 99.008 118.488 98.376 117.72 97.576C116.968 96.76 116.392 95.832 115.992 94.792C115.592 93.736 115.392 92.616 115.392 91.432C115.392 90.12 115.6 88.92 116.016 87.832C116.448 86.728 117.048 85.776 117.816 84.976C118.584 84.16 119.488 83.528 120.528 83.08C121.584 82.632 122.736 82.408 123.984 82.408C125.04 82.408 126 82.552 126.864 82.84C127.728 83.128 128.456 83.456 129.048 83.824L128.04 86.176C127.576 85.856 127 85.552 126.312 85.264C125.64 84.976 124.888 84.832 124.056 84.832C122.968 84.832 121.96 85.12 121.032 85.696C120.12 86.272 119.384 87.048 118.824 88.024C118.28 89 118.008 90.096 118.008 91.312C118.008 92.544 118.256 93.648 118.752 94.624C119.264 95.6 119.984 96.368 120.912 96.928C121.84 97.488 122.928 97.768 124.176 97.768C125.072 97.768 125.856 97.632 126.528 97.36C127.216 97.088 127.776 96.776 128.208 96.424L129.288 98.68ZM131.336 100L138.992 81.88H139.136L146.792 100H143.888L138.32 85.816L140.12 84.64L133.832 100H131.336ZM135.968 93.472H142.208L143.072 95.632H135.224L135.968 93.472ZM154.669 82.6C155.885 82.6 156.965 82.816 157.909 83.248C158.853 83.664 159.589 84.28 160.117 85.096C160.661 85.896 160.933 86.888 160.933 88.072C160.933 88.76 160.829 89.44 160.621 90.112C160.413 90.784 160.077 91.392 159.613 91.936C159.165 92.48 158.557 92.92 157.789 93.256C157.037 93.576 156.109 93.736 155.005 93.736H152.437V100H149.941V82.6H154.669ZM154.957 91.312C155.853 91.312 156.541 91.144 157.021 90.808C157.517 90.456 157.861 90.04 158.053 89.56C158.245 89.064 158.341 88.6 158.341 88.168C158.341 87.848 158.285 87.512 158.173 87.16C158.061 86.792 157.877 86.448 157.621 86.128C157.381 85.792 157.053 85.528 156.637 85.336C156.221 85.128 155.709 85.024 155.101 85.024H152.437V91.312H154.957ZM157.885 92.8L162.397 100H159.469L154.885 92.848L157.885 92.8ZM170.606 82.6C171.822 82.6 172.902 82.816 173.846 83.248C174.79 83.664 175.526 84.28 176.054 85.096C176.598 85.896 176.87 86.888 176.87 88.072C176.87 88.76 176.766 89.44 176.558 90.112C176.35 90.784 176.014 91.392 175.55 91.936C175.102 92.48 174.494 92.92 173.726 93.256C172.974 93.576 172.046 93.736 170.942 93.736H168.374V100H165.878V82.6H170.606ZM170.894 91.312C171.79 91.312 172.478 91.144 172.958 90.808C173.454 90.456 173.798 90.04 173.99 89.56C174.182 89.064 174.278 88.6 174.278 88.168C174.278 87.848 174.222 87.512 174.11 87.16C173.998 86.792 173.814 86.448 173.558 86.128C173.318 85.792 172.99 85.528 172.574 85.336C172.158 85.128 171.646 85.024 171.038 85.024H168.374V91.312H170.894ZM173.822 92.8L178.334 100H175.406L170.822 92.848L173.822 92.8ZM180.337 91.312C180.337 90.112 180.561 88.976 181.009 87.904C181.473 86.832 182.113 85.888 182.929 85.072C183.745 84.24 184.689 83.592 185.761 83.128C186.833 82.648 187.977 82.408 189.193 82.408C190.409 82.408 191.553 82.648 192.625 83.128C193.713 83.592 194.665 84.24 195.481 85.072C196.313 85.888 196.961 86.832 197.425 87.904C197.889 88.976 198.121 90.112 198.121 91.312C198.121 92.544 197.889 93.696 197.425 94.768C196.961 95.84 196.313 96.784 195.481 97.6C194.665 98.416 193.713 99.056 192.625 99.52C191.553 99.968 190.409 100.192 189.193 100.192C187.977 100.192 186.833 99.968 185.761 99.52C184.689 99.056 183.745 98.424 182.929 97.624C182.113 96.824 181.473 95.888 181.009 94.816C180.561 93.728 180.337 92.56 180.337 91.312ZM182.929 91.336C182.929 92.52 183.209 93.6 183.769 94.576C184.329 95.552 185.089 96.328 186.049 96.904C187.009 97.48 188.081 97.768 189.265 97.768C190.433 97.768 191.489 97.48 192.433 96.904C193.377 96.328 194.129 95.552 194.689 94.576C195.249 93.6 195.529 92.512 195.529 91.312C195.529 90.112 195.241 89.024 194.665 88.048C194.105 87.056 193.345 86.272 192.385 85.696C191.441 85.12 190.385 84.832 189.217 84.832C188.033 84.832 186.961 85.128 186.001 85.72C185.057 86.296 184.305 87.08 183.745 88.072C183.201 89.048 182.929 90.136 182.929 91.336ZM214.788 98.68C214.516 98.856 214.124 99.072 213.612 99.328C213.116 99.568 212.524 99.776 211.836 99.952C211.164 100.128 210.428 100.208 209.628 100.192C208.268 100.176 207.052 99.936 205.98 99.472C204.908 99.008 203.988 98.376 203.22 97.576C202.468 96.76 201.892 95.832 201.492 94.792C201.092 93.736 200.892 92.616 200.892 91.432C200.892 90.12 201.1 88.92 201.516 87.832C201.948 86.728 202.548 85.776 203.316 84.976C204.084 84.16 204.988 83.528 206.028 83.08C207.084 82.632 208.236 82.408 209.484 82.408C210.54 82.408 211.5 82.552 212.364 82.84C213.228 83.128 213.956 83.456 214.548 83.824L213.54 86.176C213.076 85.856 212.5 85.552 211.812 85.264C211.14 84.976 210.388 84.832 209.556 84.832C208.468 84.832 207.46 85.12 206.532 85.696C205.62 86.272 204.884 87.048 204.324 88.024C203.78 89 203.508 90.096 203.508 91.312C203.508 92.544 203.756 93.648 204.252 94.624C204.764 95.6 205.484 96.368 206.412 96.928C207.34 97.488 208.428 97.768 209.676 97.768C210.572 97.768 211.356 97.632 212.028 97.36C212.716 97.088 213.276 96.776 213.708 96.424L214.788 98.68ZM218.636 82.6H221.132V100H218.636V82.6ZM241.21 100.6L227.794 87.208L228.538 87.448L228.586 100H226.066V82.048H226.162L239.41 95.44L238.834 95.296L238.786 82.6H241.282V100.6H241.21ZM260.142 82.6V100H257.622V92.464H248.718V100H246.222V82.6H248.718V90.064H257.622V82.6H260.142ZM263.266 100L270.922 81.88H271.066L278.722 100H275.818L270.25 85.816L272.05 84.64L265.762 100H263.266ZM267.898 93.472H274.138L275.002 95.632H267.154L267.898 93.472ZM284.988 100V82.6H289.812C291.54 82.6 293.004 82.864 294.204 83.392C295.404 83.904 296.38 84.6 297.132 85.48C297.884 86.344 298.428 87.304 298.764 88.36C299.116 89.416 299.292 90.472 299.292 91.528C299.292 92.824 299.06 94 298.596 95.056C298.148 96.096 297.516 96.984 296.7 97.72C295.9 98.456 294.98 99.024 293.94 99.424C292.9 99.808 291.804 100 290.652 100H284.988ZM287.484 97.576H290.172C291.436 97.576 292.556 97.336 293.532 96.856C294.508 96.376 295.276 95.672 295.836 94.744C296.412 93.816 296.7 92.688 296.7 91.36C296.7 90.272 296.516 89.336 296.148 88.552C295.796 87.752 295.324 87.096 294.732 86.584C294.14 86.056 293.476 85.664 292.74 85.408C292.004 85.152 291.252 85.024 290.484 85.024H287.484V97.576ZM302.048 91.312C302.048 90.112 302.272 88.976 302.72 87.904C303.184 86.832 303.824 85.888 304.64 85.072C305.456 84.24 306.4 83.592 307.472 83.128C308.544 82.648 309.688 82.408 310.904 82.408C312.12 82.408 313.264 82.648 314.336 83.128C315.424 83.592 316.376 84.24 317.192 85.072C318.024 85.888 318.672 86.832 319.136 87.904C319.6 88.976 319.832 90.112 319.832 91.312C319.832 92.544 319.6 93.696 319.136 94.768C318.672 95.84 318.024 96.784 317.192 97.6C316.376 98.416 315.424 99.056 314.336 99.52C313.264 99.968 312.12 100.192 310.904 100.192C309.688 100.192 308.544 99.968 307.472 99.52C306.4 99.056 305.456 98.424 304.64 97.624C303.824 96.824 303.184 95.888 302.72 94.816C302.272 93.728 302.048 92.56 302.048 91.312ZM304.64 91.336C304.64 92.52 304.92 93.6 305.48 94.576C306.04 95.552 306.8 96.328 307.76 96.904C308.72 97.48 309.792 97.768 310.976 97.768C312.144 97.768 313.2 97.48 314.144 96.904C315.088 96.328 315.84 95.552 316.4 94.576C316.96 93.6 317.24 92.512 317.24 91.312C317.24 90.112 316.952 89.024 316.376 88.048C315.816 87.056 315.056 86.272 314.096 85.696C313.152 85.12 312.096 84.832 310.928 84.832C309.744 84.832 308.672 85.128 307.712 85.72C306.768 86.296 306.016 87.08 305.456 88.072C304.912 89.048 304.64 90.136 304.64 91.336ZM121.056 118.6C122.816 118.6 124.2 118.96 125.208 119.68C126.216 120.4 126.72 121.504 126.72 122.992C126.72 123.936 126.504 124.752 126.072 125.44C125.64 126.112 125.032 126.64 124.248 127.024C123.48 127.408 122.576 127.624 121.536 127.672L121.176 126.328C122.392 126.36 123.48 126.576 124.44 126.976C125.4 127.36 126.16 127.904 126.72 128.608C127.296 129.296 127.584 130.12 127.584 131.08C127.584 131.96 127.416 132.712 127.08 133.336C126.76 133.96 126.32 134.472 125.76 134.872C125.216 135.256 124.592 135.544 123.888 135.736C123.2 135.912 122.48 136 121.728 136H116.472V118.6H121.056ZM121.512 126.136C122.424 126.136 123.088 125.88 123.504 125.368C123.92 124.84 124.128 124.224 124.128 123.52C124.128 122.656 123.856 122.024 123.312 121.624C122.784 121.224 122.072 121.024 121.176 121.024H118.968V126.136H121.512ZM121.608 133.672C122.552 133.672 123.352 133.464 124.008 133.048C124.664 132.632 124.992 131.984 124.992 131.104C124.992 130.464 124.816 129.96 124.464 129.592C124.112 129.224 123.664 128.96 123.12 128.8C122.576 128.64 122.016 128.56 121.44 128.56H118.968V133.672H121.608ZM131.425 118.6H142.825V121.024H133.921V126.04H141.865V128.464H133.921V133.576H143.161V136H131.425V118.6ZM147.152 136V118.024H147.176L156.392 131.104L155.312 130.888L164.504 118.024H164.552V136H162.056V123.712L162.2 124.984L155.768 134.128H155.72L149.144 124.984L149.576 123.808V136H147.152Z" fill="#1E1E1E"/>
</svg>
