<svg width="497" height="99" viewBox="0 0 497 99" fill="none" xmlns="http://www.w3.org/2000/svg">
<path d="M124.168 82.888C124.504 84.568 125.512 85.688 127.192 86.248L136.264 88.264V97H90.232V88.264L101.32 86.416L90.568 6.112H93.928L73.432 93.64H54.952L30.088 5.94399H34.12L25.216 86.416L38.488 88.264V97H0.52V88.264L9.928 86.248C11.72 85.688 12.672 84.568 12.784 82.888L20.848 15.52C21.072 13.392 20.176 12.16 18.16 11.824L7.744 9.976V0.735998H52.096L71.752 77.176H65.704L83.512 0.735998H127.864V9.976L116.944 11.824C114.816 12.16 113.92 13.392 114.256 15.52L124.168 82.888ZM162.633 98.344C156.473 98.344 151.545 96.72 147.849 93.472C144.153 90.224 142.305 85.912 142.305 80.536C142.305 76.056 143.537 72.304 146.001 69.28C148.577 66.256 151.937 63.96 156.081 62.392C160.225 60.712 164.649 59.76 169.353 59.536L185.313 58.696V66.76L175.065 67.432C171.145 67.544 168.457 68.608 167.001 70.624C165.545 72.64 164.817 75.104 164.817 78.016C164.817 80.816 165.377 82.888 166.497 84.232C167.617 85.576 169.465 86.248 172.041 86.248C174.617 86.248 177.025 85.744 179.265 84.736C181.505 83.616 183.353 82.16 184.809 80.368L186.489 85.072C184.361 89.328 181.225 92.632 177.081 94.984C172.937 97.224 168.121 98.344 162.633 98.344ZM144.321 41.392C146.337 36.128 149.865 31.984 154.905 28.96C160.057 25.824 166.777 24.256 175.065 24.256C185.033 24.256 192.201 26.552 196.569 31.144C200.937 35.624 203.121 42.344 203.121 51.304V83.056C203.121 85.296 204.185 86.528 206.313 86.752L212.361 87.592V95.824C210.681 96.272 208.441 96.776 205.641 97.336C202.953 97.896 200.377 98.176 197.913 98.176C193.657 98.176 190.129 97.28 187.329 95.488C184.529 93.584 182.681 90.224 181.785 85.408V51.64C181.785 46.712 180.609 43.296 178.257 41.392C176.017 39.488 172.769 38.536 168.513 38.536C164.817 38.536 161.345 39.152 158.097 40.384C154.961 41.504 152.049 43.296 149.361 45.76L144.321 41.392ZM246.311 46.096C248.327 41.616 250.567 37.752 253.031 34.504C255.607 31.144 258.351 28.568 261.263 26.776C264.287 24.984 267.423 24.088 270.671 24.088C272.015 24.088 273.695 24.312 275.711 24.76C277.727 25.096 279.295 25.544 280.415 26.104C280.863 29.576 280.919 33.776 280.583 38.704C280.247 43.632 279.575 48.392 278.567 52.984H268.991L266.807 45.928C266.359 44.36 265.743 43.352 264.959 42.904C264.287 42.456 263.223 42.232 261.767 42.232C259.975 42.232 257.847 42.736 255.383 43.744C252.919 44.752 250.567 46.544 248.327 49.12L246.311 46.096ZM251.183 45.76V83.56C251.183 85.576 252.191 86.752 254.207 87.088L264.455 88.264V97H219.599V88.264L226.151 87.088C228.055 86.752 229.007 85.576 229.007 83.56V41.896C229.007 39.88 228.111 38.704 226.319 38.368L218.927 36.856V27.784C222.847 26.664 227.047 25.824 231.527 25.264C236.119 24.704 240.319 24.368 244.127 24.256L247.655 26.944L251.183 45.76ZM287.356 62.56C287.356 54.16 288.868 47.16 291.892 41.56C295.028 35.848 299.284 31.536 304.66 28.624C310.036 25.712 316.14 24.256 322.972 24.256C327.34 24.256 331.652 24.76 335.908 25.768C340.164 26.776 343.692 28.064 346.492 29.632C346.828 33.776 346.828 37.864 346.492 41.896C346.268 45.928 345.82 49.848 345.148 53.656H334.396L330.868 41.392C330.42 39.936 330.028 38.816 329.692 38.032C329.356 37.248 328.908 36.632 328.348 36.184C327.676 35.624 326.836 35.12 325.828 34.672C324.82 34.224 323.7 34 322.468 34C319.332 34 316.644 35.96 314.404 39.88C312.164 43.688 311.044 50.24 311.044 59.536C311.044 68.048 312.276 74.488 314.74 78.856C317.204 83.112 321.348 85.24 327.172 85.24C330.756 85.24 333.892 84.624 336.58 83.392C339.268 82.048 341.34 80.76 342.796 79.528L347.5 83.224C346.044 87.704 342.908 91.4 338.092 94.312C333.388 97.224 327.34 98.68 319.948 98.68C312.444 98.68 306.284 97.112 301.468 93.976C296.652 90.728 293.068 86.36 290.716 80.872C288.476 75.384 287.356 69.28 287.356 62.56ZM403.623 62.392C403.623 55.336 403.287 49.68 402.615 45.424C401.943 41.168 400.711 38.144 398.919 36.352C397.239 34.448 394.887 33.496 391.863 33.496C388.167 33.496 385.367 35.456 383.463 39.376C381.671 43.296 380.775 50.352 380.775 60.544C380.775 67.6 381.111 73.256 381.783 77.512C382.567 81.768 383.799 84.848 385.479 86.752C387.159 88.656 389.511 89.608 392.535 89.608C396.231 89.608 398.975 87.648 400.767 83.728C402.671 79.696 403.623 72.584 403.623 62.392ZM356.919 62.224C356.919 52.928 358.487 45.536 361.623 40.048C364.871 34.448 369.239 30.416 374.727 27.952C380.215 25.488 386.375 24.256 393.207 24.256C400.375 24.256 406.479 25.6 411.519 28.288C416.559 30.864 420.423 34.84 423.111 40.216C425.911 45.592 427.311 52.424 427.311 60.712C427.311 70.12 425.743 77.624 422.607 83.224C419.471 88.712 415.159 92.688 409.671 95.152C404.295 97.504 398.135 98.68 391.191 98.68C384.135 98.68 378.031 97.392 372.879 94.816C367.727 92.128 363.751 88.096 360.951 82.72C358.263 77.344 356.919 70.512 356.919 62.224ZM438.657 93.304C438.209 90.056 438.041 86.696 438.153 83.224C438.265 79.752 438.545 76.448 438.993 73.312H450.081L452.601 82.384C453.161 84.624 454.113 86.248 455.457 87.256C456.353 87.816 457.585 88.432 459.153 89.104C460.721 89.776 462.569 90.112 464.697 90.112C467.721 90.112 470.017 89.272 471.585 87.592C473.265 85.912 474.105 83.952 474.105 81.712C474.105 79.472 473.265 77.624 471.585 76.168C469.905 74.712 467.665 73.312 464.865 71.968C462.065 70.624 458.929 69.112 455.457 67.432C450.529 64.856 446.497 62 443.361 58.864C440.337 55.728 438.825 51.472 438.825 46.096C438.825 39.712 441.177 34.504 445.881 30.472C450.585 26.328 457.865 24.256 467.721 24.256C471.753 24.256 475.953 24.648 480.321 25.432C484.801 26.216 488.609 27.224 491.745 28.456C491.969 31.368 491.969 34.504 491.745 37.864C491.633 41.224 491.297 44.416 490.737 47.44H480.489L477.801 38.872C477.465 37.64 477.073 36.744 476.625 36.184C476.289 35.512 475.673 34.952 474.777 34.504C473.657 33.832 472.481 33.328 471.249 32.992C470.129 32.656 468.953 32.488 467.721 32.488C465.257 32.488 463.241 33.216 461.673 34.672C460.105 36.016 459.321 37.92 459.321 40.384C459.321 42.512 459.993 44.304 461.337 45.76C462.681 47.216 464.417 48.504 466.545 49.624C468.785 50.744 471.193 51.864 473.769 52.984C477.689 54.664 481.329 56.512 484.689 58.528C488.161 60.432 490.905 62.84 492.921 65.752C495.049 68.552 496.113 72.192 496.113 76.672C496.113 83.952 493.201 89.44 487.377 93.136C481.553 96.832 474.217 98.68 465.369 98.68C460.217 98.68 455.345 98.12 450.753 97C446.161 95.88 442.129 94.648 438.657 93.304Z" fill="white"/>
</svg>
